<svg width="32" height="31" viewBox="0 0 32 31" fill="none" xmlns="http://www.w3.org/2000/svg">
<path d="M20.9645 16.1806C20.9645 16.433 20.8642 16.6751 20.6857 16.8536C20.5072 17.0321 20.2651 17.1324 20.0127 17.1324H17.1573V19.9878C17.1573 20.2402 17.057 20.4823 16.8785 20.6608C16.7 20.8393 16.4579 20.9396 16.2055 20.9396C15.953 20.9396 15.7109 20.8393 15.5324 20.6608C15.3539 20.4823 15.2537 20.2402 15.2537 19.9878V17.1324H12.3983C12.1458 17.1324 11.9037 17.0321 11.7252 16.8536C11.5467 16.6751 11.4464 16.433 11.4464 16.1806C11.4464 15.9281 11.5467 15.686 11.7252 15.5075C11.9037 15.329 12.1458 15.2288 12.3983 15.2288H15.2537V12.3734C15.2537 12.1209 15.3539 11.8788 15.5324 11.7003C15.7109 11.5218 15.953 11.4215 16.2055 11.4215C16.4579 11.4215 16.7 11.5218 16.8785 11.7003C17.057 11.8788 17.1573 12.1209 17.1573 12.3734V15.2288H20.0127C20.2651 15.2288 20.5072 15.329 20.6857 15.5075C20.8642 15.686 20.9645 15.9281 20.9645 16.1806ZM28.5789 9.51794V22.8432C28.5789 23.6005 28.2781 24.3268 27.7426 24.8623C27.2071 25.3977 26.4808 25.6986 25.7235 25.6986H6.68744C5.93014 25.6986 5.20385 25.3977 4.66836 24.8623C4.13287 24.3268 3.83203 23.6005 3.83203 22.8432V9.51794C3.83203 8.76064 4.13287 8.03436 4.66836 7.49887C5.20385 6.96337 5.93014 6.66254 6.68744 6.66254H9.98543L11.3275 4.65423C11.501 4.39413 11.7359 4.18079 12.0115 4.03304C12.2871 3.8853 12.5948 3.80771 12.9075 3.80713H19.5035C19.8161 3.80771 20.1238 3.8853 20.3994 4.03304C20.675 4.18079 20.9099 4.39413 21.0834 4.65423L22.4255 6.66254H25.7235C26.4808 6.66254 27.2071 6.96337 27.7426 7.49887C28.2781 8.03436 28.5789 8.76064 28.5789 9.51794ZM26.6753 9.51794C26.6753 9.26551 26.575 9.02341 26.3965 8.84492C26.218 8.66642 25.9759 8.56614 25.7235 8.56614H21.9163C21.7595 8.56624 21.6052 8.52763 21.467 8.45375C21.3287 8.37986 21.2109 8.27297 21.1239 8.14259L19.5035 5.71073H12.9075L11.287 8.14259C11.2 8.27297 11.0822 8.37986 10.944 8.45375C10.8057 8.52763 10.6514 8.56624 10.4946 8.56614H6.68744C6.435 8.56614 6.19291 8.66642 6.01441 8.84492C5.83591 9.02341 5.73564 9.26551 5.73564 9.51794V22.8432C5.73564 23.0956 5.83591 23.3377 6.01441 23.5162C6.19291 23.6947 6.435 23.795 6.68744 23.795H25.7235C25.9759 23.795 26.218 23.6947 26.3965 23.5162C26.575 23.3377 26.6753 23.0956 26.6753 22.8432V9.51794Z" fill="#343330"/>
</svg>
