<svg width="15" height="15" viewBox="0 0 15 15" fill="none" xmlns="http://www.w3.org/2000/svg">
<path fill-rule="evenodd" clip-rule="evenodd" d="M3.94297 10.9091C4.21491 11.181 4.54181 11.317 4.92368 11.317H13.2554C13.6373 11.317 13.9642 11.181 14.2361 10.9091C14.5081 10.6372 14.6441 10.3102 14.6441 9.92838V1.59663C14.6441 1.21476 14.5081 0.887855 14.2361 0.615916C13.9642 0.343977 13.6373 0.208008 13.2554 0.208008H4.92368C4.54181 0.208008 4.21491 0.343977 3.94297 0.615916C3.67103 0.887855 3.53506 1.21476 3.53506 1.59663V9.92838C3.53506 10.3102 3.67103 10.6372 3.94297 10.9091ZM1.16572 13.6863C1.43766 13.9583 1.76456 14.0942 2.14644 14.0942H11.1725C11.3692 14.0942 11.5341 14.0277 11.6672 13.8946C11.8003 13.7616 11.8668 13.5967 11.8668 13.3999C11.8668 13.2032 11.8003 13.0383 11.6672 12.9052C11.5341 12.7722 11.3692 12.7056 11.1725 12.7056H2.14644V3.67957C2.14644 3.48285 2.0799 3.31795 1.94682 3.18487C1.81375 3.05179 1.64885 2.98526 1.45212 2.98526C1.2554 2.98526 1.0905 3.05179 0.957427 3.18487C0.824351 3.31795 0.757812 3.48285 0.757812 3.67957V12.7056C0.757812 13.0875 0.893782 13.4144 1.16572 13.6863ZM13.0275 3.59224C13.2534 3.35901 13.2475 2.98682 13.0142 2.76093C12.781 2.53505 12.4088 2.54101 12.1829 2.77424L8.52963 6.54644L7.10033 5.27148C6.85803 5.05535 6.4864 5.07656 6.27026 5.31886C6.05413 5.56116 6.07534 5.93279 6.31764 6.14893L8.16803 7.79951C8.40333 8.0094 8.76232 7.99629 8.98169 7.76979L13.0275 3.59224Z" fill="white"/>
</svg>
