<svg width="15" height="15" viewBox="0 0 15 15" fill="none" xmlns="http://www.w3.org/2000/svg">
<path fill-rule="evenodd" clip-rule="evenodd" d="M4.92368 11.7669C4.54181 11.7669 4.21491 11.631 3.94297 11.359C3.67103 11.0871 3.53506 10.7602 3.53506 10.3783V2.04658C3.53506 1.66471 3.67103 1.33781 3.94297 1.06587C4.21491 0.793928 4.54181 0.657959 4.92368 0.657959H13.2554C13.6373 0.657959 13.9642 0.793928 14.2361 1.06587C14.5081 1.33781 14.6441 1.66471 14.6441 2.04658V10.3783C14.6441 10.7602 14.5081 11.0871 14.2361 11.359C13.9642 11.631 13.6373 11.7669 13.2554 11.7669H4.92368ZM2.14644 14.5442C1.76456 14.5442 1.43766 14.4082 1.16572 14.1363C0.893782 13.8644 0.757812 13.5374 0.757812 13.1556V4.12952C0.757812 3.9328 0.824351 3.7679 0.957427 3.63482C1.0905 3.50174 1.2554 3.43521 1.45212 3.43521C1.64885 3.43521 1.81375 3.50174 1.94682 3.63482C2.0799 3.7679 2.14644 3.9328 2.14644 4.12952V13.1556H11.1725C11.3692 13.1556 11.5341 13.2221 11.6672 13.3552C11.8003 13.4883 11.8668 13.6532 11.8668 13.8499C11.8668 14.0466 11.8003 14.2115 11.6672 14.3446C11.5341 14.4777 11.3692 14.5442 11.1725 14.5442H2.14644ZM6.29327 9.00922C6.06369 8.77962 6.06369 8.40739 6.29327 8.1778L8.35779 6.11328L6.29327 4.04877C6.06369 3.81918 6.06369 3.44694 6.29327 3.21735C6.52286 2.98776 6.8951 2.98776 7.12469 3.21735L9.18921 5.28186L11.2526 3.21843C11.4822 2.98884 11.8545 2.98884 12.0841 3.21843C12.3137 3.44802 12.3137 3.82025 12.0841 4.04984L10.0206 6.11328L12.0841 8.17672C12.3137 8.40631 12.3137 8.77855 12.0841 9.00814C11.8545 9.23773 11.4822 9.23773 11.2526 9.00814L9.18921 6.9447L7.12469 9.00922C6.8951 9.2388 6.52286 9.2388 6.29327 9.00922Z" fill="white"/>
</svg>
