<svg width="15" height="15" viewBox="0 0 15 15" fill="none" xmlns="http://www.w3.org/2000/svg">
<path d="M8.61363 9.65802C8.81035 9.65802 8.98103 9.58569 9.12567 9.44105C9.27031 9.29641 9.34263 9.12573 9.34263 8.92902C9.34263 8.7323 9.27031 8.56163 9.12567 8.41698C8.98103 8.27234 8.81035 8.20002 8.61363 8.20002C8.41692 8.20002 8.24624 8.27234 8.1016 8.41698C7.95696 8.56163 7.88464 8.7323 7.88464 8.92902C7.88464 9.12573 7.95696 9.29641 8.1016 9.44105C8.24624 9.58569 8.41692 9.65802 8.61363 9.65802ZM8.61363 7.43631C8.74092 7.43631 8.85953 7.39002 8.96945 7.29745C9.07938 7.20488 9.14592 7.08338 9.16906 6.93295C9.1922 6.79409 9.24138 6.66681 9.3166 6.55109C9.39181 6.43538 9.52777 6.27917 9.72449 6.08245C10.0716 5.73531 10.3031 5.4547 10.4188 5.24063C10.5345 5.02656 10.5923 4.77488 10.5923 4.4856C10.5923 3.96489 10.4101 3.53964 10.0456 3.20985C9.6811 2.88007 9.20377 2.71518 8.61363 2.71518C8.23178 2.71518 7.88464 2.80196 7.57221 2.97553C7.25978 3.1491 7.01099 3.39789 6.82585 3.72189C6.75642 3.8376 6.75064 3.9591 6.8085 4.08639C6.86635 4.21367 6.96471 4.30624 7.10357 4.3641C7.23085 4.42196 7.35524 4.42774 7.47674 4.38146C7.59824 4.33517 7.69949 4.25417 7.78049 4.13846C7.88464 3.98803 8.00613 3.87521 8.14499 3.79999C8.28385 3.72478 8.44006 3.68717 8.61363 3.68717C8.89135 3.68717 9.11699 3.76528 9.29056 3.92149C9.46413 4.07771 9.55092 4.28889 9.55092 4.55503C9.55092 4.71703 9.50463 4.87035 9.41206 5.01499C9.31949 5.15963 9.15749 5.34188 8.92606 5.56174C8.59049 5.85103 8.37642 6.07377 8.28385 6.22999C8.19128 6.3862 8.13342 6.61474 8.11028 6.91559C8.09871 7.05445 8.1421 7.17595 8.24046 7.28009C8.33881 7.38424 8.46321 7.43631 8.61363 7.43631ZM4.44793 11.7409C4.06607 11.7409 3.73918 11.6049 3.46725 11.333C3.19533 11.061 3.05936 10.7342 3.05936 10.3523V2.02089C3.05936 1.63904 3.19533 1.31214 3.46725 1.04022C3.73918 0.768288 4.06607 0.632324 4.44793 0.632324H12.7793C13.1612 0.632324 13.4881 0.768288 13.76 1.04022C14.0319 1.31214 14.1679 1.63904 14.1679 2.02089V10.3523C14.1679 10.7342 14.0319 11.061 13.76 11.333C13.4881 11.6049 13.1612 11.7409 12.7793 11.7409H4.44793ZM1.67079 14.518C1.28894 14.518 0.962046 14.382 0.690118 14.1101C0.41819 13.8382 0.282227 13.5113 0.282227 13.1294V4.10374C0.282227 3.90703 0.348762 3.74214 0.481833 3.60907C0.614904 3.476 0.779797 3.40946 0.97651 3.40946C1.17322 3.40946 1.33812 3.476 1.47119 3.60907C1.60426 3.74214 1.67079 3.90703 1.67079 4.10374V13.1294H10.6965C10.8932 13.1294 11.0581 13.196 11.1912 13.329C11.3242 13.4621 11.3908 13.627 11.3908 13.8237C11.3908 14.0204 11.3242 14.1853 11.1912 14.3184C11.0581 14.4515 10.8932 14.518 10.6965 14.518H1.67079Z" fill="white"/>
</svg>
