<svg width="15" height="15" viewBox="0 0 15 15" fill="none" xmlns="http://www.w3.org/2000/svg">
<path d="M8.61363 9.30841C8.81035 9.30841 8.98103 9.23608 9.12567 9.09144C9.27031 8.9468 9.34263 8.77612 9.34263 8.57941C9.34263 8.38269 9.27031 8.21202 9.12567 8.06737C8.98103 7.92273 8.81035 7.85041 8.61363 7.85041C8.41692 7.85041 8.24624 7.92273 8.1016 8.06737C7.95696 8.21202 7.88464 8.38269 7.88464 8.57941C7.88464 8.77612 7.95696 8.9468 8.1016 9.09144C8.24624 9.23608 8.41692 9.30841 8.61363 9.30841ZM8.61363 7.0867C8.74092 7.0867 8.85953 7.04041 8.96945 6.94784C9.07938 6.85527 9.14592 6.73377 9.16906 6.58334C9.1922 6.44448 9.24138 6.3172 9.3166 6.20149C9.39181 6.08577 9.52777 5.92956 9.72449 5.73284C10.0716 5.3857 10.3031 5.1051 10.4188 4.89102C10.5345 4.67695 10.5923 4.42528 10.5923 4.13599C10.5923 3.61528 10.4101 3.19003 10.0456 2.86024C9.6811 2.53046 9.20377 2.36557 8.61363 2.36557C8.23178 2.36557 7.88464 2.45235 7.57221 2.62592C7.25978 2.79949 7.01099 3.04828 6.82585 3.37228C6.75642 3.48799 6.75064 3.60949 6.8085 3.73678C6.86635 3.86406 6.96471 3.95663 7.10357 4.01449C7.23085 4.07235 7.35524 4.07813 7.47674 4.03185C7.59824 3.98556 7.69949 3.90456 7.78049 3.78885C7.88464 3.63842 8.00613 3.5256 8.14499 3.45039C8.28385 3.37517 8.44006 3.33756 8.61363 3.33756C8.89135 3.33756 9.11699 3.41567 9.29056 3.57188C9.46413 3.7281 9.55092 3.93928 9.55092 4.20542C9.55092 4.36742 9.50463 4.52074 9.41206 4.66538C9.31949 4.81002 9.15749 4.99227 8.92606 5.21213C8.59049 5.50142 8.37642 5.72416 8.28385 5.88038C8.19128 6.03659 8.13342 6.26513 8.11028 6.56598C8.09871 6.70484 8.1421 6.82634 8.24046 6.93048C8.33881 7.03463 8.46321 7.0867 8.61363 7.0867ZM4.44793 11.3913C4.06607 11.3913 3.73918 11.2553 3.46725 10.9834C3.19533 10.7114 3.05936 10.3845 3.05936 10.0027V1.67128C3.05936 1.28943 3.19533 0.962535 3.46725 0.690607C3.73918 0.418679 4.06607 0.282715 4.44793 0.282715H12.7793C13.1612 0.282715 13.4881 0.418679 13.76 0.690607C14.0319 0.962535 14.1679 1.28943 14.1679 1.67128V10.0027C14.1679 10.3845 14.0319 10.7114 13.76 10.9834C13.4881 11.2553 13.1612 11.3913 12.7793 11.3913H4.44793ZM1.67079 14.1684C1.28894 14.1684 0.962046 14.0324 0.690118 13.7605C0.41819 13.4886 0.282227 13.1617 0.282227 12.7798V3.75413C0.282227 3.55742 0.348762 3.39253 0.481833 3.25946C0.614904 3.12639 0.779797 3.05985 0.97651 3.05985C1.17322 3.05985 1.33812 3.12639 1.47119 3.25946C1.60426 3.39253 1.67079 3.55742 1.67079 3.75413V12.7798H10.6965C10.8932 12.7798 11.0581 12.8464 11.1912 12.9794C11.3242 13.1125 11.3908 13.2774 11.3908 13.4741C11.3908 13.6708 11.3242 13.8357 11.1912 13.9688C11.0581 14.1019 10.8932 14.1684 10.6965 14.1684H1.67079Z" fill="white"/>
</svg>
